<?xml version="1.0" encoding="UTF-8"?>
<!-- Creator: CorelDRAW -->
<svg xmlns="http://www.w3.org/2000/svg" xml:space="preserve" width="0.5in" height="0.5in" version="1.2" style="shape-rendering:geometricPrecision; text-rendering:geometricPrecision; image-rendering:optimizeQuality; fill-rule:evenodd; clip-rule:evenodd"
viewBox="0 0 500 500"
 xmlns:xlink="http://www.w3.org/1999/xlink">
 <defs>
  <style type="text/css">
   <![CDATA[
    .fil0 {fill:black}
   ]]>
  </style>
 </defs>
 <g id="Layer_x0020_1">
  <metadata id="CorelCorpID_0Corel-Layer"/>
  <path class="fil0" d="M68 47c0,10 0,11 5,16l16 14c1,1 3,2 4,3l64 53c4,3 20,10 9,30 -2,3 -4,6 -7,8 -5,3 -3,1 -9,7 -12,11 -11,11 -21,23 -3,4 -5,5 -7,9 -4,7 -6,16 -6,25 -5,37 41,69 59,63 4,-1 2,-3 9,2 5,4 5,3 5,12l10 0c0,-15 -1,-14 -14,-24 8,1 18,2 24,-3 -4,-4 -3,-2 -7,-7 -8,1 -9,0 -17,0 2,-2 4,-2 11,-7 2,-1 3,-2 4,-4 1,-1 3,-4 4,-5 -2,-2 -5,-5 -8,-6 -4,4 -8,12 -16,12l-1 -5c-12,-3 -23,-13 -23,-27 0,-9 6,-19 10,-25 7,-9 4,-5 9,-9 13,-13 14,-14 25,-29 13,-17 14,-30 5,-49 -4,-7 -6,-9 -13,-14l-76 -60c-18,-15 -15,-8 -16,-23l374 0 0 418c0,6 -1,23 0,28l-448 0 0 -390c0,-9 -1,-51 1,-56 3,-1 39,-1 43,0l-2 20zm-68 453l500 0 0 -500 -500 0 0 500z"/>
  <path class="fil0" d="M351 286c5,-2 12,-4 18,-5l-22 45 60 -14c2,2 1,3 1,3l0 -188c0,-4 -6,-9 -11,-10 -7,-2 -12,1 -15,4 -3,3 -3,3 -3,9l0 32c-1,14 -1,29 -1,43 0,7 0,15 0,22 0,10 2,17 -4,17 -3,-3 -2,-16 -2,-22l0 -119c0,-12 2,-14 -3,-20 -11,-16 -28,-4 -28,2 -1,8 0,17 0,24l0 95c0,5 1,32 -1,35 -1,2 -4,4 -7,4 -4,-5 -3,-16 -3,-24 0,-9 0,-17 0,-26 0,-43 1,-90 0,-132 0,-7 -7,-11 -14,-12 -5,0 -17,4 -17,8l-1 185c-7,5 -11,4 -10,-7 0,-9 0,-17 0,-25 0,-40 0,-83 0,-123 -1,-19 -28,-10 -29,-7l0 130c0,12 3,32 -6,37 -4,-2 -2,-7 -2,-13 4,-29 2,-71 -33,-74 -2,3 -2,4 -2,8l1 137c0,17 -1,56 3,71 5,20 15,35 30,43l1 45 125 0 0 -50c3,-2 5,-5 7,-7 21,-21 28,-42 25,-74l-98 18c2,-6 18,-32 21,-40l-68 19 24 -44 -69 17c-1,-17 -2,-16 3,-17l49 -14c14,-4 42,-13 54,-15 -1,3 -11,18 -13,22l-11 17c0,1 0,1 -1,2 -1,1 -2,3 -2,3l54 -15z"/>
 </g>
</svg>
